<svg xmlns="http://www.w3.org/2000/svg" version="1.1" xmlns:xlink="http://www.w3.org/1999/xlink" xmlns:svgjs="http://svgjs.com/svgjs" width="1440" height="560" preserveAspectRatio="none" viewBox="0 0 1440 560"><g mask="url(&quot;#SvgjsMask1114&quot;)" fill="none"><path d="M 0,87 C 72,101 216,146.8 360,157 C 504,167.2 576,128.4 720,138 C 864,147.6 936,216.6 1080,205 C 1224,193.4 1368,105 1440,80L1440 560L0 560z" fill="#184a7e"></path><path d="M 0,411 C 57.6,418 172.8,460.6 288,446 C 403.2,431.4 460.8,339 576,338 C 691.2,337 748.8,429.4 864,441 C 979.2,452.6 1036.8,381.2 1152,396 C 1267.2,410.8 1382.4,491.2 1440,515L1440 560L0 560z" fill="#2264ab"></path></g><defs><mask id="SvgjsMask1114"><rect width="1440" height="560" fill="#ffffff"></rect></mask></defs></svg>