<!--?xml version="1.0" standalone="no"?-->
              <svg id="sw-js-blob-svg" viewBox="0 0 100 100" xmlns="http://www.w3.org/2000/svg" version="1.1">
                    <defs> 
                        <linearGradient id="sw-gradient" x1="0" x2="1" y1="1" y2="0">
                            <stop id="stop1" stop-color="rgba(189.151, 189.151, 189.151, 1)" offset="0%"></stop>
                            <stop id="stop2" stop-color="rgba(246.071, 246.071, 246.071, 1)" offset="100%"></stop>
                        </linearGradient>
                    </defs>
                <path fill="url(#sw-gradient)" d="M19.7,-37.4C23.9,-31.6,24.6,-23.1,26.7,-16.4C28.7,-9.7,32.2,-4.9,33.9,1C35.5,6.8,35.4,13.6,32.7,19.2C30,24.8,24.7,29.2,18.8,32.9C12.9,36.6,6.5,39.5,-0.3,40.1C-7.1,40.6,-14.1,38.6,-18.8,34.2C-23.4,29.8,-25.7,23,-27.8,16.9C-29.9,10.7,-31.9,5.4,-30.3,0.9C-28.7,-3.5,-23.4,-7,-21.1,-12.8C-18.9,-18.7,-19.5,-26.8,-16.5,-33.3C-13.5,-39.7,-6.7,-44.4,0.5,-45.2C7.7,-46.1,15.5,-43.1,19.7,-37.4Z" width="100%" height="100%" transform="translate(50 50)" stroke-width="0" style="transition: all 0.3s ease 0s;" stroke="url(#sw-gradient)"></path>
              </svg>